<svg width="202" height="202" viewBox="0 0 202 202" fill="none" xmlns="http://www.w3.org/2000/svg">
<g clip-path="url(#clip0_107_4)">
<path d="M202 0H0V202H202V0Z" fill="#F0F6FF"/>
<g clip-path="url(#clip1_107_4)">
<path d="M101 101C101 97.4638 102.405 94.0724 104.905 91.5719C107.406 89.0714 110.797 87.6667 114.333 87.6667C117.87 87.6667 121.261 89.0714 123.761 91.5719C126.262 94.0724 127.667 97.4638 127.667 101C127.667 104.536 126.262 107.928 123.761 110.428C121.261 112.929 117.87 114.333 114.333 114.333C110.797 114.333 107.406 112.929 104.905 110.428C102.405 107.928 101 104.536 101 101ZM74.3333 127.667C74.3333 124.13 75.7381 120.739 78.2386 118.239C80.739 115.738 84.1304 114.333 87.6666 114.333H101V127.667C101 131.203 99.5952 134.594 97.0947 137.095C94.5943 139.595 91.2029 141 87.6666 141C84.1304 141 80.739 139.595 78.2386 137.095C75.7381 134.594 74.3333 131.203 74.3333 127.667ZM101 61V87.6667H114.333C117.87 87.6667 121.261 86.2619 123.761 83.7614C126.262 81.2609 127.667 77.8696 127.667 74.3333C127.667 70.7971 126.262 67.4057 123.761 64.9052C121.261 62.4048 117.87 61 114.333 61H101ZM74.3333 74.3333C74.3333 77.8696 75.7381 81.2609 78.2386 83.7614C80.739 86.2619 84.1304 87.6667 87.6666 87.6667H101V61H87.6666C84.1304 61 80.739 62.4048 78.2386 64.9052C75.7381 67.4057 74.3333 70.7971 74.3333 74.3333ZM74.3333 101C74.3333 104.536 75.7381 107.928 78.2386 110.428C80.739 112.929 84.1304 114.333 87.6666 114.333H101V87.6667H87.6666C84.1304 87.6667 80.739 89.0714 78.2386 91.5719C75.7381 94.0724 74.3333 97.4638 74.3333 101Z" fill="#F76E60"/>
</g>
</g>
<defs>
<clipPath id="clip0_107_4">
<rect width="202" height="202" fill="white"/>
</clipPath>
<clipPath id="clip1_107_4">
<rect width="80" height="80" fill="white" transform="translate(61 61)"/>
</clipPath>
</defs>
</svg>
