<svg width="202" height="202" viewBox="0 0 202 202" fill="none" xmlns="http://www.w3.org/2000/svg">
<g clip-path="url(#clip0_107_4)">
<path d="M202 0H0V202H202V0Z" fill="#F0F6FF"/>
<path d="M71 71H131V131H71V71ZM86.7667 121.133C88.1 123.967 90.7333 126.3 95.2333 126.3C100.233 126.3 103.667 123.633 103.667 117.8V98.5333H98V117.667C98 120.533 96.8333 121.267 95 121.267C93.0667 121.267 92.2667 119.933 91.3667 118.367L86.7667 121.133ZM106.7 120.533C108.367 123.8 111.733 126.3 117 126.3C122.333 126.3 126.333 123.533 126.333 118.433C126.333 113.733 123.633 111.633 118.833 109.567L117.433 108.967C115 107.933 113.967 107.233 113.967 105.567C113.967 104.2 115 103.133 116.667 103.133C118.267 103.133 119.333 103.833 120.3 105.567L124.667 102.667C122.833 99.4667 120.233 98.2333 116.667 98.2333C111.633 98.2333 108.4 101.433 108.4 105.667C108.4 110.267 111.1 112.433 115.167 114.167L116.567 114.767C119.167 115.9 120.7 116.6 120.7 118.533C120.7 120.133 119.2 121.3 116.867 121.3C114.1 121.3 112.5 119.867 111.3 117.867L106.7 120.533Z" fill="#FFCB6B"/>
</g>
<defs>
<clipPath id="clip0_107_4">
<rect width="202" height="202" fill="white"/>
</clipPath>
</defs>
</svg>
