<svg width="202" height="202" viewBox="0 0 202 202" fill="none" xmlns="http://www.w3.org/2000/svg">
<g clip-path="url(#clip0_107_4)">
<path d="M202 0H0V202H202V0Z" fill="#F0F6FF"/>
<g clip-path="url(#clip1_107_4)">
<path d="M121.375 66.5481C94.9156 50.9905 61.2945 69.9922 61.0019 100.669C60.7162 130.625 92.4179 149.973 118.818 136.788L89.9938 94.3807L89.9938 120.63C89.9938 123.539 84.4283 123.539 84.4283 120.63V85.4407C84.4283 83.132 88.717 82.9426 89.9323 84.9494L122.786 134.527C147.466 118.63 147.132 81.6932 121.375 66.5481ZM117.663 116.226L112.08 107.698V84.3529C112.08 82.1759 117.663 82.1759 117.663 84.3529V116.226Z" fill="#78909C"/>
</g>
</g>
<defs>
<clipPath id="clip0_107_4">
<rect width="202" height="202" fill="white"/>
</clipPath>
<clipPath id="clip1_107_4">
<rect width="80" height="80" fill="white" transform="translate(61 61)"/>
</clipPath>
</defs>
</svg>
