<svg width="202" height="202" viewBox="0 0 202 202" fill="none" xmlns="http://www.w3.org/2000/svg">
<g clip-path="url(#clip0_107_4)">
<path d="M202 0H0V202H202V0Z" fill="#F0F6FF"/>
<path fill-rule="evenodd" clip-rule="evenodd" d="M96.852 79.8952C94.8722 76.4909 89.9221 76.4909 87.9421 79.8952L66.3634 116.998C64.3834 120.402 66.8584 124.658 70.8184 124.658H87.664C85.972 123.179 85.3453 120.621 86.6258 118.426L102.969 90.412L96.852 79.8952Z" fill="#00DC82"/>
<path d="M110.525 88.0339C112.163 85.2486 116.26 85.2486 117.898 88.0339L135.757 118.391C137.395 121.176 135.347 124.658 132.07 124.658H96.3533C93.0763 124.658 91.028 121.176 92.6667 118.391L110.525 88.0339Z" fill="#00DC82"/>
</g>
<defs>
<clipPath id="clip0_107_4">
<rect width="202" height="202" fill="white"/>
</clipPath>
</defs>
</svg>
