<svg width="202" height="202" viewBox="0 0 202 202" fill="none" xmlns="http://www.w3.org/2000/svg">
<g clip-path="url(#clip0_107_4)">
<path d="M202 0H0V202H202V0Z" fill="#F0F6FF"/>
<g clip-path="url(#clip1_107_4)">
<path d="M107.985 100.817C107.985 95.341 102.056 91.9002 97.3381 94.6379C92.6205 97.3757 92.6205 104.257 97.3381 106.995C102.056 109.733 107.985 106.292 107.985 100.817ZM124.236 87.665C128.933 65.2133 118.6 58.1678 101.033 74.4194C84.4998 58.9194 72.726 63.8042 77.7362 87.571C54.6328 94.5359 56.1635 107.647 77.924 114.344C72.9452 136.232 82.2453 144.217 101.033 127.683C119.258 144.029 128.93 136.376 123.955 114.25C147.69 106.202 145.561 94.5539 124.236 87.665ZM121.042 86.8195C117.319 85.9796 113.716 85.3682 110.051 85.0346C108.121 82.2116 105.872 79.3916 103.288 76.7679C117.372 63.2585 125.673 67.4797 121.042 86.8195ZM84.6877 105.138C86.0812 108.113 87.913 110.837 89.2908 113.123C87.0472 112.893 84.6302 112.545 82.0574 112.089C82.8818 109.782 83.7595 107.464 84.6877 105.138ZM84.4998 97.0589C83.4749 94.5987 82.5396 92.2242 81.7756 90.0134C84.4316 89.4629 87.0343 88.963 89.2908 88.7922C87.6114 91.4304 86.0163 94.1886 84.4998 97.0589ZM86.4726 101.192C88.7698 96.5917 91.1997 92.2248 93.8938 88.3225C98.6741 88.0476 103.404 88.072 108.079 88.4165C110.701 92.07 113.148 96.4368 115.5 101.192C113.74 104.829 111.241 109.021 108.361 113.498C103.552 113.863 98.6206 113.812 93.612 113.498C91.0735 109.609 88.6894 105.513 86.4726 101.192ZM117.285 105.138C118.197 107.351 119.04 109.607 119.821 111.901C117.41 112.409 115.032 112.779 112.682 113.029C114.29 110.537 115.816 107.89 117.285 105.138ZM112.682 88.7922C115.243 89.1429 117.717 89.5807 120.103 90.1074C119.305 92.479 118.398 94.7968 117.379 97.0589C115.925 94.1911 114.364 91.431 112.682 88.7922ZM105.448 84.6589C102.523 84.5441 99.5464 84.5478 96.5241 84.6589C97.8472 82.9188 99.3219 81.1011 100.939 79.2104C102.516 80.9118 104.009 82.7431 105.448 84.6589ZM98.6848 76.7679C96.1005 79.3916 93.8518 82.1176 91.9211 84.9407C88.2566 85.2743 84.5598 85.8856 80.8362 86.7256C76.421 67.0921 84.6007 63.2585 98.6848 76.7679ZM78.7695 111.244C59.1987 105.357 60.1381 96.1822 78.5816 90.765C79.7098 94.1886 81.0757 97.6655 82.621 101.004C81.1194 104.457 79.7901 108.004 78.7695 111.244ZM81.2119 115.189C84.5312 116.003 88.0486 116.394 91.7332 116.786C93.9502 119.915 96.2461 122.824 98.6848 125.335C84.3433 139.081 76.3484 134.087 81.2119 115.189ZM100.939 122.986C99.2398 121.226 97.6531 119.232 96.1484 117.068C99.5026 117.139 102.742 117.147 105.824 117.068C104.332 119.186 102.701 121.156 100.939 122.986ZM103.288 125.335C105.904 122.492 108.211 119.61 110.239 116.692C113.701 116.438 117.208 115.906 120.761 115.095C125.668 135.21 116.757 138.18 103.288 125.335ZM123.109 111.056C122.103 107.816 120.832 104.457 119.352 101.004C120.875 97.6655 122.185 94.2825 123.297 90.8589C141.302 96.3074 142.743 105.013 123.109 111.056Z" fill="#26A2C1"/>
</g>
</g>
<defs>
<clipPath id="clip0_107_4">
<rect width="202" height="202" fill="white"/>
</clipPath>
<clipPath id="clip1_107_4">
<rect width="80" height="80" fill="white" transform="translate(61 61)"/>
</clipPath>
</defs>
</svg>
