<svg width="202" height="202" viewBox="0 0 202 202" fill="none" xmlns="http://www.w3.org/2000/svg">
<g clip-path="url(#clip0_107_4)">
<path d="M202 0H0V202H202V0Z" fill="#F0F6FF"/>
<path d="M83.5 95.25C85.8333 85.9167 91.6667 81.25 101 81.25C115 81.25 116.75 91.75 123.75 93.5C128.417 94.6667 132.5 92.9167 136 88.25C133.667 97.5833 127.833 102.25 118.5 102.25C104.5 102.25 102.75 91.75 95.75 90C91.0833 88.8333 87 90.5833 83.5 95.25ZM66 116.25C68.3333 106.917 74.1667 102.25 83.5 102.25C97.5 102.25 99.25 112.75 106.25 114.5C110.917 115.667 115 113.917 118.5 109.25C116.167 118.583 110.333 123.25 101 123.25C87 123.25 85.25 112.75 78.25 111C73.5833 109.833 69.5 111.583 66 116.25Z" fill="#44A8B3"/>
</g>
<defs>
<clipPath id="clip0_107_4">
<rect width="202" height="202" fill="white"/>
</clipPath>
</defs>
</svg>
