<svg width="202" height="202" viewBox="0 0 202 202" fill="none" xmlns="http://www.w3.org/2000/svg">
<g clip-path="url(#clip0_107_4)">
<path d="M202 0H0V202H202V0Z" fill="#F0F6FF"/>
<path fill-rule="evenodd" clip-rule="evenodd" d="M68.36 68.36V133.64H133.64V68.36H68.36ZM117.963 100.067V100.068C118.589 100.07 119.301 100.102 119.836 100.16C122.015 100.396 123.712 101.336 125.155 103.107C125.874 103.989 126.12 104.375 126.068 104.54C126.034 104.646 125.541 105 123.972 106.041C122.432 107.064 121.936 107.37 121.82 107.37C121.703 107.37 121.46 107.119 121.109 106.638C120.433 105.712 119.743 105.289 118.676 105.148C117.529 104.996 116.5 105.358 115.996 106.091C115.565 106.716 115.5 107.724 115.843 108.455C116.239 109.303 116.957 109.771 119.709 110.978C122.883 112.37 124.491 113.322 125.663 114.504C126.924 115.777 127.563 117.247 127.759 119.326C127.855 120.34 127.738 121.541 127.448 122.517C126.737 124.911 124.818 126.664 122.005 127.489C121.227 127.717 120.504 127.853 119.788 127.905C118.696 127.986 117.132 127.941 116.19 127.804C113.809 127.457 111.121 126.072 109.78 124.5C109.122 123.729 108.282 122.46 108.282 122.236C108.282 122.129 108.335 122.067 108.547 121.933C109.174 121.534 112.77 119.479 112.84 119.479C112.882 119.479 113.07 119.7 113.257 119.971C113.681 120.583 114.724 121.636 115.254 121.987C115.688 122.274 116.241 122.504 116.899 122.67C117.276 122.764 117.475 122.781 118.297 122.781C119.136 122.781 119.309 122.767 119.684 122.666C120.678 122.398 121.453 121.845 121.782 121.169C121.926 120.877 121.929 120.841 121.929 120.132V119.398L121.752 119.048C121.325 118.199 120.403 117.616 117.489 116.354C116.151 115.774 114.511 114.957 113.871 114.55C112.411 113.622 111.399 112.561 110.734 111.262C110.074 109.97 109.975 109.489 109.973 107.547C109.972 106.027 109.969 106.045 110.284 105.075C110.57 104.194 111.154 103.211 111.8 102.525C113.088 101.155 114.97 100.275 116.985 100.1C117.242 100.076 117.587 100.066 117.963 100.067L117.963 100.067ZM100.626 100.368H100.626C104.507 100.369 106.731 100.383 106.767 100.405C106.834 100.447 106.842 100.785 106.842 102.94V105.427L102.97 105.441L99.0982 105.455V116.449C99.0982 122.496 99.0859 127.479 99.0691 127.523C99.0417 127.597 98.7439 127.603 96.2245 127.603H93.4104L93.3813 127.489C93.3625 127.426 93.3488 122.443 93.3485 116.415L93.3476 105.454L89.4754 105.44L85.6032 105.426V102.969C85.6032 101.02 85.6167 100.498 85.6686 100.447C85.7218 100.392 87.698 100.378 96.2129 100.369C97.8546 100.367 99.332 100.367 100.626 100.368Z" fill="#0288D1"/>
</g>
<defs>
<clipPath id="clip0_107_4">
<rect width="202" height="202" fill="white"/>
</clipPath>
</defs>
</svg>
