<svg width="1000" height="1000" viewBox="0 0 1000 1000" fill="none" xmlns="http://www.w3.org/2000/svg">
<mask id="mask0_111_99" style="mask-type:alpha" maskUnits="userSpaceOnUse" x="0" y="0" width="1000" height="1000">
<rect width="1000" height="1000" fill="#D9D9D9"/>
</mask>
<g mask="url(#mask0_111_99)">
<ellipse cx="901.937" cy="674.939" rx="484.262" ry="535.714" fill="url(#paint0_linear_111_99)"/>
<circle cx="674.334" cy="1000" r="484.262" fill="url(#paint1_linear_111_99)"/>
<path d="M0 427L-199.186 139L199.186 139L0 427Z" fill="#F7EFE5"/>
<path d="M627.408 835.72V818.874H694.278V875.344H675.089L673.185 860.036C661.759 871.315 644.4 875.344 627.701 875.344C590.641 875.197 560.318 864.504 560.465 827.297V820.119C560.318 782.839 590.641 772.146 627.701 772.072C661.832 772.072 689.957 781.374 694.278 811.696H653.482C651.065 808.4 647.55 806.203 643.009 805.031C638.468 803.859 633.341 803.273 627.701 803.273C611.954 803.493 598.624 806.423 598.844 822.463V824.88C598.624 841.066 611.954 843.85 627.701 844.069C642.862 844.069 652.53 843.19 658.316 835.72H627.408ZM711.93 774.562H806.778C827.066 774.343 844.278 791.408 843.985 811.77C843.985 819.167 842.008 825.905 838.053 831.911C834.171 837.844 828.971 842.385 822.525 845.388L843.985 873H803.116L784.586 848.977H750.309V873H711.93V774.562ZM797.11 803.347H750.309V820.119H797.11C799.454 820.119 801.432 819.313 803.043 817.702C804.728 816.018 805.533 814.04 805.533 811.77C805.533 807.082 801.798 803.347 797.11 803.347Z" fill="black"/>
</g>
<defs>
<linearGradient id="paint0_linear_111_99" x1="901.937" y1="139.225" x2="901.937" y2="1210.65" gradientUnits="userSpaceOnUse">
<stop stop-color="#F7EFE5"/>
<stop offset="1" stop-color="#9A9A9A"/>
</linearGradient>
<linearGradient id="paint1_linear_111_99" x1="674.334" y1="515.739" x2="674.334" y2="1484.26" gradientUnits="userSpaceOnUse">
<stop stop-color="#F7EFE5"/>
<stop offset="1" stop-color="#9A9A9A"/>
</linearGradient>
</defs>
</svg>
