<svg width="1000" height="1000" viewBox="0 0 1000 1000" fill="none" xmlns="http://www.w3.org/2000/svg">
<mask id="path-1-inside-1_185_598" fill="white">
<path fill-rule="evenodd" clip-rule="evenodd" d="M604.904 34.4344V34.4343L355.701 34L496.051 258.607L496.062 258.585L505.458 273.622L505.432 273.621L645.782 498.228L754.635 274.056L754.634 274.056L754.635 274.055L604.904 34.4344ZM411.607 149.135L343.235 40.1402L274.863 149.135H411.607ZM5.54138 375.901L137.967 164.795H420.522L552.948 375.901H288.096L288.109 375.88H270.38L270.393 375.901H5.54138ZM994.94 631.822L862.514 842.928H579.959L447.533 631.822H712.385L712.372 631.843H730.101L730.088 631.822H994.94ZM233.537 744.866L303.571 853.861H180.35L233.537 744.866ZM995 613.689L911.669 504.694L858.256 613.689H995ZM762.081 256.937L693.709 147.942H816.099L762.081 256.937ZM5 394.165L73.372 503.16L127.39 394.165H5ZM656.765 966.883L588.393 857.888H710.783L656.765 966.883ZM391.115 965.995L241.384 726.375L241.386 726.374H241.384L350.237 502.201L490.587 726.808L490.562 726.808L499.958 741.845L499.968 741.823L640.318 966.43L391.115 965.995ZM963.323 358.938L963.309 358.969L963.323 358.992L963.321 358.992L963.323 358.993L841.006 613.7L841.004 613.699L606.676 613.7L606.702 613.646H606.676L708.033 402.883L708.046 402.905L715.721 386.922L715.696 386.925L830.349 148.176L963.323 358.937L963.321 358.937L963.323 358.938ZM149.722 394.212L384.053 394.206L282.701 604.97L282.689 604.95L275.013 620.933L275.038 620.93L274.096 622.844L217.696 740.297L216.536 739.74L160.405 853.733L27.412 648.924L27.4131 648.924L27.4121 648.924L149.722 394.213L149.722 394.212Z"/>
</mask>
<path fill-rule="evenodd" clip-rule="evenodd" d="M604.904 34.4344V34.4343L355.701 34L496.051 258.607L496.062 258.585L505.458 273.622L505.432 273.621L645.782 498.228L754.635 274.056L754.634 274.056L754.635 274.055L604.904 34.4344ZM411.607 149.135L343.235 40.1402L274.863 149.135H411.607ZM5.54138 375.901L137.967 164.795H420.522L552.948 375.901H288.096L288.109 375.88H270.38L270.393 375.901H5.54138ZM994.94 631.822L862.514 842.928H579.959L447.533 631.822H712.385L712.372 631.843H730.101L730.088 631.822H994.94ZM233.537 744.866L303.571 853.861H180.35L233.537 744.866ZM995 613.689L911.669 504.694L858.256 613.689H995ZM762.081 256.937L693.709 147.942H816.099L762.081 256.937ZM5 394.165L73.372 503.16L127.39 394.165H5ZM656.765 966.883L588.393 857.888H710.783L656.765 966.883ZM391.115 965.995L241.384 726.375L241.386 726.374H241.384L350.237 502.201L490.587 726.808L490.562 726.808L499.958 741.845L499.968 741.823L640.318 966.43L391.115 965.995ZM963.323 358.938L963.309 358.969L963.323 358.992L963.321 358.992L963.323 358.993L841.006 613.7L841.004 613.699L606.676 613.7L606.702 613.646H606.676L708.033 402.883L708.046 402.905L715.721 386.922L715.696 386.925L830.349 148.176L963.323 358.937L963.321 358.937L963.323 358.938ZM149.722 394.212L384.053 394.206L282.701 604.97L282.689 604.95L275.013 620.933L275.038 620.93L274.096 622.844L217.696 740.297L216.536 739.74L160.405 853.733L27.412 648.924L27.4131 648.924L27.4121 648.924L149.722 394.213L149.722 394.212Z" fill="url(#paint0_linear_185_598)"/>
<path d="M604.904 34.4343H607.904V31.4395L604.909 31.4343L604.904 34.4343ZM604.904 34.4344H601.904V35.2947L602.36 36.0242L604.904 34.4344ZM355.701 34L355.706 31L350.283 30.9906L353.157 35.5898L355.701 34ZM496.051 258.607L493.507 260.197L496.378 264.792L498.749 259.919L496.051 258.607ZM496.062 258.585L498.606 256.995L495.734 252.4L493.364 257.272L496.062 258.585ZM505.458 273.622L505.452 276.622L510.876 276.631L508.002 272.032L505.458 273.622ZM505.432 273.621L505.438 270.621L500.014 270.612L502.888 275.211L505.432 273.621ZM645.782 498.228L643.238 499.818L646.112 504.417L648.481 499.539L645.782 498.228ZM754.635 274.056L757.334 275.366L759.408 271.095L754.66 271.056L754.635 274.056ZM754.634 274.056L753.044 271.512L744.311 276.97L754.609 277.056L754.634 274.056ZM754.635 274.055L756.225 276.599L758.769 275.009L757.18 272.465L754.635 274.055ZM343.235 40.1402L345.776 38.546L343.235 34.4947L340.694 38.546L343.235 40.1402ZM411.607 149.135V152.135H417.03L414.148 147.541L411.607 149.135ZM274.863 149.135L272.322 147.541L269.44 152.135H274.863V149.135ZM137.967 164.795V161.795H136.308L135.426 163.201L137.967 164.795ZM5.54138 375.901L3.00001 374.307L0.118094 378.901H5.54138V375.901ZM420.522 164.795L423.064 163.201L422.182 161.795H420.522V164.795ZM552.948 375.901V378.901H558.371L555.489 374.307L552.948 375.901ZM288.096 375.901L285.555 374.306L282.672 378.901H288.096V375.901ZM288.109 375.88L290.651 377.475L293.534 372.88H288.109V375.88ZM270.38 375.88V372.88H264.955L267.839 377.475L270.38 375.88ZM270.393 375.901V378.901H275.817L272.934 374.306L270.393 375.901ZM862.514 842.928V845.928H864.174L865.055 844.523L862.514 842.928ZM994.94 631.822L997.481 633.417L1000.36 628.822H994.94V631.822ZM579.959 842.928L577.418 844.523L578.3 845.928H579.959V842.928ZM447.533 631.822V628.822H442.11L444.992 633.417L447.533 631.822ZM712.385 631.822L714.926 633.417L717.809 628.822H712.385V631.822ZM712.372 631.843L709.831 630.248L706.947 634.843H712.372V631.843ZM730.101 631.843V634.843H735.526L732.642 630.248L730.101 631.843ZM730.088 631.822V628.822H724.664L727.547 633.417L730.088 631.822ZM303.571 853.861V856.861H309.065L306.095 852.239L303.571 853.861ZM233.537 744.866L236.061 743.244L233.179 738.759L230.841 743.55L233.537 744.866ZM180.35 853.861L177.654 852.545L175.548 856.861H180.35V853.861ZM911.669 504.694L914.053 502.872L911.108 499.021L908.975 503.374L911.669 504.694ZM995 613.689V616.689H1001.07L997.383 611.867L995 613.689ZM858.256 613.689L855.562 612.369L853.445 616.689H858.256V613.689ZM693.709 147.942V144.942H688.286L691.168 149.536L693.709 147.942ZM762.081 256.937L759.54 258.531L762.389 263.073L764.769 258.269L762.081 256.937ZM816.099 147.942L818.787 149.274L820.934 144.942H816.099V147.942ZM73.372 503.16L70.8307 504.754L73.6794 509.296L76.06 504.492L73.372 503.16ZM5 394.165V391.165H-0.423284L2.45863 395.759L5 394.165ZM127.39 394.165L130.078 395.497L132.225 391.165H127.39V394.165ZM588.393 857.888V854.888H582.97L585.852 859.482L588.393 857.888ZM656.765 966.883L654.224 968.477L657.072 973.018L659.453 968.215L656.765 966.883ZM710.783 857.888L713.471 859.22L715.618 854.888H710.783V857.888ZM241.384 726.375L239.831 723.808L237.227 725.384L238.84 727.965L241.384 726.375ZM391.115 965.995L388.571 967.585L389.45 968.992L391.11 968.995L391.115 965.995ZM241.386 726.374L242.939 728.941L252.139 723.374H241.386V726.374ZM241.384 726.374L238.685 725.063L236.592 729.374H241.384V726.374ZM350.237 502.201L352.781 500.611L349.907 496.012L347.538 500.891L350.237 502.201ZM490.587 726.808L490.58 729.808L496.007 729.821L493.131 725.218L490.587 726.808ZM490.562 726.808L490.569 723.808L485.141 723.795L488.018 728.398L490.562 726.808ZM499.958 741.845L497.413 743.434L500.29 748.037L502.657 743.153L499.958 741.845ZM499.968 741.823L502.512 740.233L499.636 735.63L497.269 740.514L499.968 741.823ZM640.318 966.43L640.313 969.43L645.736 969.439L642.862 964.84L640.318 966.43ZM963.309 358.969L960.604 357.67L959.885 359.166L960.772 360.57L963.309 358.969ZM963.323 358.938L966.027 360.237L967.321 357.544L964.633 356.239L963.323 358.938ZM963.323 358.992L963.674 361.971L968.401 361.415L965.86 357.39L963.323 358.992ZM963.321 358.992L962.971 356.013L952.781 357.211L962.011 361.691L963.321 358.992ZM963.323 358.993L966.027 360.292L967.321 357.598L964.633 356.294L963.323 358.993ZM841.006 613.7L839.722 616.412L842.419 617.689L843.711 614.999L841.006 613.7ZM841.004 613.699L842.288 610.988L841.679 610.699L841.004 610.699L841.004 613.699ZM606.676 613.7L603.972 612.401L601.906 616.7L606.676 616.7L606.676 613.7ZM606.702 613.646L609.406 614.945L611.472 610.646H606.702V613.646ZM606.676 613.646L603.973 612.345L601.905 616.646H606.676V613.646ZM708.033 402.883L710.572 401.286L707.681 396.692L705.329 401.583L708.033 402.883ZM708.046 402.905L705.507 404.502L708.399 409.099L710.75 404.203L708.046 402.905ZM715.721 386.922L718.426 388.22L720.771 383.336L715.387 383.941L715.721 386.922ZM715.696 386.925L712.992 385.626L710.647 390.51L716.031 389.906L715.696 386.925ZM830.349 148.176L832.887 146.575L829.993 141.988L827.645 146.877L830.349 148.176ZM963.323 358.937L963.63 361.921L968.441 361.426L965.86 357.336L963.323 358.937ZM963.321 358.937L963.014 355.953L952.525 357.033L962.011 361.636L963.321 358.937ZM384.053 394.206L386.756 395.506L388.824 391.205L384.052 391.206L384.053 394.206ZM149.722 394.212L149.722 391.212L146.904 391.213L146.728 394.025L149.722 394.212ZM282.701 604.97L280.164 606.57L283.056 611.156L285.405 606.27L282.701 604.97ZM282.689 604.95L285.226 603.35L282.333 598.761L279.984 603.651L282.689 604.95ZM275.013 620.933L272.309 619.634L269.96 624.526L275.352 623.914L275.013 620.933ZM275.038 620.93L277.73 622.255L280.155 617.33L274.7 617.949L275.038 620.93ZM274.096 622.844L271.404 621.519L271.398 621.533L271.391 621.546L274.096 622.844ZM217.696 740.297L216.397 743.001L219.102 744.3L220.4 741.595L217.696 740.297ZM216.536 739.74L217.835 737.035L215.157 735.749L213.845 738.414L216.536 739.74ZM160.405 853.733L157.889 855.367L160.764 859.795L163.097 855.058L160.405 853.733ZM27.412 648.924L27.0767 645.943L22.2516 646.486L24.896 650.558L27.412 648.924ZM27.4131 648.924L27.7485 651.905L38.5743 650.688L28.6513 646.191L27.4131 648.924ZM27.4121 648.924L24.7077 647.625L23.3799 650.39L26.1739 651.656L27.4121 648.924ZM149.722 394.213L152.427 395.512L152.68 394.984L152.717 394.4L149.722 394.213ZM601.904 34.4343V34.4344H607.904V34.4343H601.904ZM355.696 37L604.899 37.4343L604.909 31.4343L355.706 31L355.696 37ZM498.595 257.017L358.245 32.4102L353.157 35.5898L493.507 260.197L498.595 257.017ZM493.364 257.272L493.353 257.294L498.749 259.919L498.759 259.897L493.364 257.272ZM508.002 272.032L498.606 256.995L493.518 260.175L502.913 275.211L508.002 272.032ZM505.427 276.621L505.452 276.622L505.463 270.622L505.438 270.621L505.427 276.621ZM648.326 496.639L507.976 272.032L502.888 275.211L643.238 499.818L648.326 496.639ZM751.937 272.745L643.084 496.918L648.481 499.539L757.334 275.366L751.937 272.745ZM754.609 277.056L754.61 277.056L754.66 271.056L754.659 271.056L754.609 277.056ZM753.045 271.511L753.044 271.512L756.224 276.6L756.225 276.599L753.045 271.511ZM602.36 36.0242L752.091 275.644L757.18 272.465L607.448 32.8447L602.36 36.0242ZM340.694 41.7344L409.066 150.729L414.148 147.541L345.776 38.546L340.694 41.7344ZM277.404 150.729L345.776 41.7344L340.694 38.546L272.322 147.541L277.404 150.729ZM411.607 146.135H274.863V152.135H411.607V146.135ZM135.426 163.201L3.00001 374.307L8.08275 377.495L140.509 166.389L135.426 163.201ZM420.522 161.795H137.967V167.795H420.522V161.795ZM555.489 374.307L423.064 163.201L417.981 166.389L550.407 377.495L555.489 374.307ZM288.096 378.901H552.948V372.901H288.096V378.901ZM285.568 374.285L285.555 374.306L290.637 377.496L290.651 377.475L285.568 374.285ZM270.38 378.88H288.109V372.88H270.38V378.88ZM272.934 374.306L272.921 374.285L267.839 377.475L267.852 377.496L272.934 374.306ZM5.54138 378.901H270.393V372.901H5.54138V378.901ZM865.055 844.523L997.481 633.417L992.398 630.228L859.973 841.334L865.055 844.523ZM579.959 845.928H862.514V839.928H579.959V845.928ZM444.992 633.417L577.418 844.523L582.5 841.334L450.075 630.228L444.992 633.417ZM712.385 628.822H447.533V634.822H712.385V628.822ZM714.913 633.438L714.926 633.417L709.844 630.228L709.831 630.248L714.913 633.438ZM730.101 628.843H712.372V634.843H730.101V628.843ZM727.547 633.417L727.56 633.438L732.642 630.248L732.629 630.228L727.547 633.417ZM994.94 628.822H730.088V634.822H994.94V628.822ZM306.095 852.239L236.061 743.244L231.013 746.487L301.047 855.482L306.095 852.239ZM180.35 856.861H303.571V850.861H180.35V856.861ZM230.841 743.55L177.654 852.545L183.047 855.176L236.233 746.181L230.841 743.55ZM909.286 506.516L992.617 615.511L997.383 611.867L914.053 502.872L909.286 506.516ZM860.95 615.009L914.363 506.014L908.975 503.374L855.562 612.369L860.95 615.009ZM995 610.689H858.256V616.689H995V610.689ZM691.168 149.536L759.54 258.531L764.623 255.343L696.251 146.348L691.168 149.536ZM816.099 144.942H693.709V150.942H816.099V144.942ZM764.769 258.269L818.787 149.274L813.411 146.61L759.393 255.605L764.769 258.269ZM75.9134 501.566L7.54137 392.571L2.45863 395.759L70.8307 504.754L75.9134 501.566ZM124.702 392.833L70.684 501.828L76.06 504.492L130.078 395.497L124.702 392.833ZM5 397.165H127.39V391.165H5V397.165ZM585.852 859.482L654.224 968.477L659.306 965.288L590.934 856.293L585.852 859.482ZM710.783 854.888H588.393V860.888H710.783V854.888ZM659.453 968.215L713.471 859.22L708.095 856.555L654.077 965.55L659.453 968.215ZM238.84 727.965L388.571 967.585L393.659 964.406L243.928 724.785L238.84 727.965ZM239.833 723.807L239.831 723.808L242.937 728.942L242.939 728.941L239.833 723.807ZM241.384 729.374H241.386V723.374H241.384V729.374ZM347.538 500.891L238.685 725.063L244.083 727.684L352.936 503.512L347.538 500.891ZM493.131 725.218L352.781 500.611L347.693 503.791L488.043 728.398L493.131 725.218ZM490.554 729.808L490.58 729.808L490.594 723.808L490.569 723.808L490.554 729.808ZM502.502 740.255L493.106 725.218L488.018 728.398L497.413 743.434L502.502 740.255ZM497.269 740.514L497.258 740.536L502.657 743.153L502.668 743.131L497.269 740.514ZM642.862 964.84L502.512 740.233L497.424 743.412L637.774 968.019L642.862 964.84ZM391.11 968.995L640.313 969.43L640.323 963.43L391.12 962.995L391.11 968.995ZM966.013 360.268L966.027 360.237L960.619 357.639L960.604 357.67L966.013 360.268ZM965.86 357.39L965.845 357.367L960.772 360.57L960.786 360.593L965.86 357.39ZM963.672 361.971L963.674 361.971L962.973 356.012L962.971 356.013L963.672 361.971ZM964.633 356.294L964.631 356.293L962.011 361.691L962.013 361.692L964.633 356.294ZM843.711 614.999L966.027 360.292L960.619 357.694L838.302 612.402L843.711 614.999ZM839.72 616.411L839.722 616.412L842.291 610.989L842.288 610.988L839.72 616.411ZM606.676 616.7L841.004 616.699L841.004 610.699L606.676 610.7L606.676 616.7ZM603.998 612.346L603.972 612.401L609.38 615L609.406 614.945L603.998 612.346ZM606.676 616.646H606.702V610.646H606.676V616.646ZM705.329 401.583L603.973 612.345L609.38 614.946L710.736 404.184L705.329 401.583ZM710.585 401.307L710.572 401.286L705.494 404.481L705.507 404.502L710.585 401.307ZM713.017 385.623L705.342 401.606L710.75 404.203L718.426 388.22L713.017 385.623ZM716.031 389.906L716.056 389.903L715.387 383.941L715.362 383.943L716.031 389.906ZM827.645 146.877L712.992 385.626L718.401 388.223L833.054 149.474L827.645 146.877ZM965.86 357.336L832.887 146.575L827.812 149.777L960.786 360.538L965.86 357.336ZM963.628 361.922L963.63 361.921L963.016 355.953L963.014 355.953L963.628 361.922ZM964.633 356.239L964.631 356.238L962.011 361.636L962.013 361.637L964.633 356.239ZM384.052 391.206L149.722 391.212L149.722 397.212L384.053 397.206L384.052 391.206ZM285.405 606.27L386.756 395.506L381.349 392.905L279.998 603.67L285.405 606.27ZM280.151 606.55L280.164 606.57L285.239 603.37L285.226 603.35L280.151 606.55ZM277.718 622.232L285.393 606.248L279.984 603.651L272.309 619.634L277.718 622.232ZM274.7 617.949L274.675 617.952L275.352 623.914L275.377 623.911L274.7 617.949ZM276.787 624.17L277.73 622.255L272.347 619.605L271.404 621.519L276.787 624.17ZM220.4 741.595L276.8 624.143L271.391 621.546L214.992 738.998L220.4 741.595ZM215.237 742.444L216.397 743.001L218.994 737.592L217.835 737.035L215.237 742.444ZM163.097 855.058L219.227 741.065L213.845 738.414L157.714 852.408L163.097 855.058ZM24.896 650.558L157.889 855.367L162.921 852.099L29.9281 647.29L24.896 650.558ZM27.0778 645.943L27.0767 645.943L27.7474 651.905L27.7485 651.905L27.0778 645.943ZM26.1739 651.656L26.175 651.657L28.6513 646.191L28.6502 646.191L26.1739 651.656ZM147.018 392.914L24.7077 647.625L30.1164 650.222L152.427 395.512L147.018 392.914ZM146.728 394.025L146.728 394.026L152.717 394.4L152.717 394.4L146.728 394.025Z" fill="url(#paint1_linear_185_598)" mask="url(#path-1-inside-1_185_598)"/>
<defs>
<linearGradient id="paint0_linear_185_598" x1="269.272" y1="109.947" x2="915.826" y2="990.023" gradientUnits="userSpaceOnUse">
<stop stop-color="#004F4A"/>
<stop offset="0.527993" stop-color="#12B0A6"/>
<stop offset="1" stop-color="white"/>
</linearGradient>
<linearGradient id="paint1_linear_185_598" x1="238.523" y1="111.609" x2="760.42" y2="862.873" gradientUnits="userSpaceOnUse">
<stop stop-color="#078B83"/>
<stop offset="1" stop-color="#BBDEDC"/>
</linearGradient>
</defs>
</svg>
