<svg width="1000" height="1000" viewBox="0 0 1000 1000" fill="none" xmlns="http://www.w3.org/2000/svg">
<g clip-path="url(#clip0_185_598)">
<g filter="url(#filter0_ddddd_185_598)">
<mask id="path-1-inside-1_185_598" fill="white">
<path fill-rule="evenodd" clip-rule="evenodd" d="M754.636 274.054L604.904 34.4342L604.904 34.4343L355.701 34L496.051 258.607L496.062 258.585L505.458 273.622L505.432 273.622L645.782 498.229L754.636 274.056H754.632L754.636 274.054ZM411.607 149.136L343.235 40.1412L274.863 149.136H411.607ZM270.38 375.885L270.393 375.906H5.54147L137.967 164.799H137.967H420.522L552.948 375.906H288.096L288.109 375.885H270.38ZM994.94 631.822L862.514 842.928H579.959L447.533 631.822H712.385L712.372 631.843H730.101L730.088 631.822H994.94ZM233.537 744.868L303.571 853.863H180.35L233.537 744.868ZM995 613.691L911.669 504.696L858.256 613.691H995ZM762.081 256.943L693.709 147.948H816.099L762.081 256.943ZM5 394.169L73.372 503.164L127.39 394.169H5ZM656.765 966.886L588.393 857.891H710.783L656.765 966.886ZM391.115 965.999L391.115 965.998L241.384 726.378L241.388 726.375H241.384L350.237 502.203L490.587 726.81L490.56 726.809L499.957 741.848L499.968 741.827L640.318 966.434L391.115 965.999ZM963.323 358.992L963.307 358.968L963.322 358.936L963.322 358.936L963.322 358.935L830.349 148.175L715.695 386.924L715.72 386.921L708.045 402.904L708.032 402.883L606.675 613.646H606.702L606.676 613.699L841 613.698L841.006 613.701L963.323 358.993L963.321 358.992L963.323 358.992ZM27.4151 648.925L27.4116 648.925L27.4135 648.928L27.4117 648.932L27.4179 648.935L160.405 853.734L216.533 739.747L217.696 740.305L274.234 622.563L275.038 620.931L275.017 620.934L282.689 604.957L282.701 604.977L384.053 394.212L149.722 394.219L149.724 394.223L149.722 394.221L27.4151 648.925Z"/>
</mask>
<path fill-rule="evenodd" clip-rule="evenodd" d="M754.636 274.054L604.904 34.4342L604.904 34.4343L355.701 34L496.051 258.607L496.062 258.585L505.458 273.622L505.432 273.622L645.782 498.229L754.636 274.056H754.632L754.636 274.054ZM411.607 149.136L343.235 40.1412L274.863 149.136H411.607ZM270.38 375.885L270.393 375.906H5.54147L137.967 164.799H137.967H420.522L552.948 375.906H288.096L288.109 375.885H270.38ZM994.94 631.822L862.514 842.928H579.959L447.533 631.822H712.385L712.372 631.843H730.101L730.088 631.822H994.94ZM233.537 744.868L303.571 853.863H180.35L233.537 744.868ZM995 613.691L911.669 504.696L858.256 613.691H995ZM762.081 256.943L693.709 147.948H816.099L762.081 256.943ZM5 394.169L73.372 503.164L127.39 394.169H5ZM656.765 966.886L588.393 857.891H710.783L656.765 966.886ZM391.115 965.999L391.115 965.998L241.384 726.378L241.388 726.375H241.384L350.237 502.203L490.587 726.81L490.56 726.809L499.957 741.848L499.968 741.827L640.318 966.434L391.115 965.999ZM963.323 358.992L963.307 358.968L963.322 358.936L963.322 358.936L963.322 358.935L830.349 148.175L715.695 386.924L715.72 386.921L708.045 402.904L708.032 402.883L606.675 613.646H606.702L606.676 613.699L841 613.698L841.006 613.701L963.323 358.993L963.321 358.992L963.323 358.992ZM27.4151 648.925L27.4116 648.925L27.4135 648.928L27.4117 648.932L27.4179 648.935L160.405 853.734L216.533 739.747L217.696 740.305L274.234 622.563L275.038 620.931L275.017 620.934L282.689 604.957L282.701 604.977L384.053 394.212L149.722 394.219L149.724 394.223L149.722 394.221L27.4151 648.925Z" fill="url(#paint0_linear_185_598)"/>
<path d="M604.904 34.4342L608.612 32.1175L606.271 28.3716L602.55 30.7507L604.904 34.4342ZM754.636 274.054L756.946 277.766L760.664 275.451L758.343 271.738L754.636 274.054ZM604.904 34.4343L604.896 38.8061L606.178 38.8084L607.259 38.1178L604.904 34.4343ZM355.701 34L355.709 29.6282L347.806 29.6144L351.994 36.3167L355.701 34ZM496.051 258.607L492.344 260.924L496.533 267.628L499.984 260.516L496.051 258.607ZM496.062 258.585L499.769 256.268L495.58 249.564L492.129 256.676L496.062 258.585ZM505.458 273.622L505.453 277.994L513.351 278.003L509.166 271.305L505.458 273.622ZM505.432 273.622L505.438 269.25L497.54 269.241L501.725 275.939L505.432 273.622ZM645.782 498.229L642.075 500.546L646.263 507.248L649.715 500.139L645.782 498.229ZM754.636 274.056L758.568 275.966L761.618 269.685H754.636V274.056ZM754.632 274.056L752.322 270.345L739.338 278.428H754.632V274.056ZM343.235 40.1412L346.938 37.8181L343.235 31.9142L339.531 37.8181L343.235 40.1412ZM411.607 149.136V153.508H419.51L415.31 146.813L411.607 149.136ZM274.863 149.136L271.159 146.813L266.96 153.508H274.863V149.136ZM270.393 375.906V380.277H278.3L274.095 373.581L270.393 375.906ZM270.38 375.885V371.513H262.472L266.678 378.21L270.38 375.885ZM5.54147 375.906L1.83801 373.582L-2.36169 380.277H5.54147V375.906ZM137.967 164.799V160.428H135.549L134.264 162.476L137.967 164.799ZM420.522 164.799L424.226 162.476L422.94 160.428H420.522V164.799ZM552.948 375.906V380.277H560.851L556.651 373.582L552.948 375.906ZM288.096 375.906L284.394 373.581L280.189 380.277H288.096V375.906ZM288.109 375.885L291.812 378.21L296.017 371.513H288.109V375.885ZM862.514 842.928V847.3H864.932L866.217 845.251L862.514 842.928ZM994.94 631.822L998.643 634.145L1002.84 627.45H994.94V631.822ZM579.959 842.928L576.255 845.251L577.54 847.3H579.959V842.928ZM447.533 631.822V627.45H439.63L443.83 634.145L447.533 631.822ZM712.385 631.822L716.089 634.143L720.282 627.45H712.385V631.822ZM712.372 631.843L708.667 629.522L704.474 636.215H712.372V631.843ZM730.101 631.843V636.215H738.019L733.801 629.514L730.101 631.843ZM730.088 631.822V627.45H722.171L726.388 634.151L730.088 631.822ZM303.571 853.863V858.234H311.577L307.249 851.499L303.571 853.863ZM233.537 744.868L237.215 742.504L233.015 735.968L229.608 742.95L233.537 744.868ZM180.35 853.863L176.421 851.945L173.352 858.234H180.35V853.863ZM911.669 504.696L915.142 502.041L910.852 496.429L907.744 502.772L911.669 504.696ZM995 613.691V618.063H1003.85L998.473 611.036L995 613.691ZM858.256 613.691L854.33 611.767L851.245 618.063H858.256V613.691ZM693.709 147.948V143.576H685.806L690.005 150.271L693.709 147.948ZM762.081 256.943L758.377 259.266L762.529 265.884L765.998 258.884L762.081 256.943ZM816.099 147.948L820.016 149.889L823.145 143.576H816.099V147.948ZM73.372 503.164L69.6686 505.487L73.82 512.105L77.2892 505.105L73.372 503.164ZM5 394.169V389.797H-2.90316L1.29655 396.492L5 394.169ZM127.39 394.169L131.307 396.11L134.436 389.797H127.39V394.169ZM588.393 857.891V853.519H580.489L584.689 860.214L588.393 857.891ZM656.765 966.886L653.061 969.209L657.213 975.827L660.682 968.828L656.765 966.886ZM710.783 857.891L714.7 859.833L717.828 853.519H710.783V857.891ZM391.115 965.998L395.375 966.981L395.782 965.217L394.823 963.682L391.115 965.998ZM391.115 965.999L386.855 965.016L385.621 970.361L391.107 970.371L391.115 965.999ZM241.384 726.378L239.09 722.656L235.345 724.965L237.676 728.695L241.384 726.378ZM241.388 726.375L243.682 730.097L256.813 722.003H241.388V726.375ZM241.384 726.375L237.451 724.466L234.401 730.747H241.384V726.375ZM350.237 502.203L353.944 499.886L349.756 493.184L346.304 500.293L350.237 502.203ZM490.587 726.81L490.577 731.181L498.485 731.2L494.294 724.493L490.587 726.81ZM490.56 726.809L490.57 722.438L482.662 722.419L486.853 729.126L490.56 726.809ZM499.957 741.848L496.25 744.165L500.442 750.874L503.892 743.754L499.957 741.848ZM499.968 741.827L503.675 739.51L499.483 732.8L496.034 739.92L499.968 741.827ZM640.318 966.434L640.31 970.805L648.214 970.819L644.026 964.117L640.318 966.434ZM963.307 358.968L959.366 357.076L958.32 359.255L959.609 361.299L963.307 358.968ZM963.323 358.992L963.829 363.335L970.721 362.53L967.021 356.661L963.323 358.992ZM963.322 358.936L959.381 357.045L959.381 357.045L963.322 358.936ZM963.322 358.936L967.264 360.827L969.189 356.816L965.144 354.961L963.322 358.936ZM963.322 358.935L959.624 361.268L960.318 362.368L961.5 362.91L963.322 358.935ZM830.349 148.175L834.046 145.842L829.829 139.158L826.408 146.282L830.349 148.175ZM715.695 386.924L711.755 385.031L708.332 392.158L716.188 391.268L715.695 386.924ZM715.72 386.921L719.661 388.814L723.083 381.687L715.227 382.577L715.72 386.921ZM708.045 402.904L704.35 405.24L708.568 411.912L711.986 404.796L708.045 402.904ZM708.032 402.883L711.727 400.547L707.511 393.88L704.092 400.989L708.032 402.883ZM606.675 613.646L602.735 611.751L599.722 618.017H606.675V613.646ZM606.702 613.646L610.642 615.539L613.653 609.274H606.702V613.646ZM606.676 613.699L602.736 611.805L599.725 618.071L606.676 618.071L606.676 613.699ZM841 613.698L842.878 609.75L841.987 609.326L841 609.326L841 613.698ZM841.006 613.701L839.128 617.649L843.061 619.52L844.947 615.593L841.006 613.701ZM963.323 358.993L967.264 360.886L969.15 356.958L965.229 355.059L963.323 358.993ZM963.321 358.992L962.814 354.65L947.916 356.388L961.415 362.927L963.321 358.992ZM27.4116 648.925L26.9537 644.578L19.8878 645.322L23.737 651.294L27.4116 648.925ZM27.4151 648.925L27.873 653.273L30.2998 653.017L31.3561 650.817L27.4151 648.925ZM27.4135 648.928L31.3604 650.808L32.4084 648.608L31.0882 646.56L27.4135 648.928ZM27.4117 648.932L23.4648 647.052L21.5827 651.003L25.5361 652.881L27.4117 648.932ZM27.4179 648.935L31.0845 646.554L30.4108 645.517L29.2935 644.986L27.4179 648.935ZM160.405 853.734L156.738 856.115L160.928 862.568L164.327 855.665L160.405 853.734ZM216.533 739.747L218.425 735.806L214.523 733.932L212.611 737.815L216.533 739.747ZM217.696 740.305L215.803 744.246L219.744 746.139L221.636 742.197L217.696 740.305ZM274.234 622.563L270.312 620.632L270.303 620.651L270.294 620.67L274.234 622.563ZM275.038 620.931L278.96 622.863L282.492 615.69L274.547 616.587L275.038 620.931ZM275.017 620.934L271.076 619.041L267.655 626.164L275.507 625.278L275.017 620.934ZM282.689 604.957L286.385 602.622L282.166 595.945L278.748 603.065L282.689 604.957ZM282.701 604.977L279.006 607.312L283.221 613.984L286.641 606.872L282.701 604.977ZM384.053 394.212L387.993 396.107L391.006 389.84L384.052 389.841L384.053 394.212ZM149.722 394.219L149.722 389.847L141.842 389.848L146.013 396.533L149.722 394.219ZM149.724 394.223L147.799 398.147L161.527 404.882L153.434 391.909L149.724 394.223ZM149.722 394.221L151.647 390.296L147.689 388.355L145.781 392.329L149.722 394.221ZM601.197 36.7509L750.928 276.371L758.343 271.738L608.612 32.1175L601.197 36.7509ZM607.259 38.1178L607.259 38.1176L602.55 30.7507L602.549 30.7509L607.259 38.1178ZM355.694 38.3718L604.896 38.8061L604.912 30.0626L355.709 29.6282L355.694 38.3718ZM499.759 256.29L359.409 31.6833L351.994 36.3167L492.344 260.924L499.759 256.29ZM492.129 256.676L492.118 256.699L499.984 260.516L499.995 260.493L492.129 256.676ZM509.166 271.305L499.769 256.268L492.355 260.902L501.751 275.939L509.166 271.305ZM505.427 277.994L505.453 277.994L505.463 269.25L505.438 269.25L505.427 277.994ZM649.49 495.912L509.14 271.305L501.725 275.939L642.075 500.546L649.49 495.912ZM750.703 272.147L641.85 496.319L649.715 500.139L758.568 275.966L750.703 272.147ZM754.632 278.428H754.636V269.685H754.632V278.428ZM752.325 270.343L752.322 270.345L756.943 277.768L756.946 277.766L752.325 270.343ZM339.531 42.4644L407.904 151.459L415.31 146.813L346.938 37.8181L339.531 42.4644ZM278.566 151.459L346.938 42.4644L339.531 37.8181L271.159 146.813L278.566 151.459ZM411.607 144.764H274.863V153.508H411.607V144.764ZM274.095 373.581L274.082 373.56L266.678 378.21L266.691 378.23L274.095 373.581ZM5.54147 380.277H270.393V371.534H5.54147V380.277ZM134.264 162.476L1.83801 373.582L9.24492 378.229L141.67 167.123L134.264 162.476ZM137.967 160.428H137.967V169.171H137.967V160.428ZM420.522 160.428H137.967V169.171H420.522V160.428ZM556.651 373.582L424.226 162.476L416.819 167.123L549.244 378.229L556.651 373.582ZM288.096 380.277H552.948V371.534H288.096V380.277ZM284.407 373.56L284.394 373.581L291.799 378.23L291.812 378.21L284.407 373.56ZM270.38 380.257H288.109V371.513H270.38V380.257ZM866.217 845.251L998.643 634.145L991.236 629.499L858.81 840.605L866.217 845.251ZM579.959 847.3H862.514V838.556H579.959V847.3ZM443.83 634.145L576.255 845.251L583.662 840.605L451.237 629.499L443.83 634.145ZM712.385 627.45H447.533V636.194H712.385V627.45ZM716.076 634.164L716.089 634.143L708.68 629.501L708.667 629.522L716.076 634.164ZM730.101 627.471H712.372V636.215H730.101V627.471ZM726.388 634.151L726.401 634.172L733.801 629.514L733.788 629.493L726.388 634.151ZM994.94 627.45H730.088V636.194H994.94V627.45ZM307.249 851.499L237.215 742.504L229.859 747.231L299.893 856.226L307.249 851.499ZM180.35 858.234H303.571V849.491H180.35V858.234ZM229.608 742.95L176.421 851.945L184.279 855.78L237.466 746.785L229.608 742.95ZM908.196 507.351L991.527 616.346L998.473 611.036L915.142 502.041L908.196 507.351ZM862.182 615.615L915.595 506.62L907.744 502.772L854.33 611.767L862.182 615.615ZM995 609.319H858.256V618.063H995V609.319ZM690.005 150.271L758.377 259.266L765.784 254.62L697.412 145.625L690.005 150.271ZM816.099 143.576H693.709V152.32H816.099V143.576ZM765.998 258.884L820.016 149.889L812.182 146.007L758.164 255.002L765.998 258.884ZM77.0755 500.84L8.70345 391.845L1.29655 396.492L69.6686 505.487L77.0755 500.84ZM123.473 392.227L69.4549 501.222L77.2892 505.105L131.307 396.11L123.473 392.227ZM5 398.54H127.39V389.797H5V398.54ZM584.689 860.214L653.061 969.209L660.468 964.563L592.096 855.568L584.689 860.214ZM710.783 853.519H588.393V862.263H710.783V853.519ZM660.682 968.828L714.7 859.833L706.865 855.95L652.847 964.945L660.682 968.828ZM386.855 965.015L386.855 965.016L395.375 966.982L395.375 966.981L386.855 965.015ZM237.676 728.695L387.408 968.315L394.823 963.682L245.091 724.061L237.676 728.695ZM239.094 722.654L239.09 722.656L243.678 730.1L243.682 730.097L239.094 722.654ZM241.384 730.747H241.388V722.003H241.384V730.747ZM346.304 500.293L237.451 724.466L245.316 728.285L354.169 504.112L346.304 500.293ZM494.294 724.493L353.944 499.886L346.529 504.519L486.879 729.126L494.294 724.493ZM490.55 731.181L490.577 731.181L490.597 722.438L490.57 722.438L490.55 731.181ZM503.665 739.531L494.268 724.493L486.853 729.126L496.25 744.165L503.665 739.531ZM496.034 739.92L496.023 739.942L503.892 743.754L503.902 743.733L496.034 739.92ZM644.026 964.117L503.675 739.51L496.26 744.143L636.611 968.75L644.026 964.117ZM391.107 970.371L640.31 970.805L640.326 962.062L391.122 961.627L391.107 970.371ZM959.609 361.299L959.624 361.324L967.021 356.661L967.005 356.636L959.609 361.299ZM959.381 357.045L959.366 357.076L967.248 360.859L967.263 360.828L959.381 357.045ZM959.381 357.044L959.381 357.045L967.263 360.828L967.264 360.827L959.381 357.044ZM961.5 362.91L961.501 362.91L965.144 354.961L965.143 354.961L961.5 362.91ZM826.651 150.508L959.624 361.268L967.019 356.602L834.046 145.842L826.651 150.508ZM719.636 388.816L834.29 150.067L826.408 146.282L711.755 385.031L719.636 388.816ZM715.227 382.577L715.203 382.58L716.188 391.268L716.212 391.265L715.227 382.577ZM711.986 404.796L719.661 388.814L711.779 385.029L704.104 401.011L711.986 404.796ZM704.337 405.22L704.35 405.24L711.74 400.567L711.727 400.547L704.337 405.22ZM610.615 615.54L711.972 404.778L704.092 400.989L602.735 611.751L610.615 615.54ZM606.702 609.274H606.675V618.017H606.702V609.274ZM610.617 615.592L610.642 615.539L602.761 611.752L602.736 611.805L610.617 615.592ZM841 609.326L606.676 609.327L606.676 618.071L841 618.07L841 609.326ZM842.884 609.753L842.878 609.75L839.122 617.646L839.128 617.649L842.884 609.753ZM959.382 357.101L837.065 611.808L844.947 615.593L967.264 360.886L959.382 357.101ZM961.415 362.927L961.417 362.928L965.229 355.059L965.227 355.058L961.415 362.927ZM962.816 354.65L962.814 354.65L963.827 363.335L963.829 363.335L962.816 354.65ZM27.8695 653.273L27.873 653.273L26.9572 644.577L26.9537 644.578L27.8695 653.273ZM31.0882 646.56L31.0863 646.557L23.737 651.294L23.7388 651.297L31.0882 646.56ZM31.3586 650.812L31.3604 650.808L23.4666 647.048L23.4648 647.052L31.3586 650.812ZM29.2935 644.986L29.2873 644.983L25.5361 652.881L25.5423 652.884L29.2935 644.986ZM164.071 851.353L31.0845 646.554L23.7513 651.316L156.738 856.115L164.071 851.353ZM212.611 737.815L156.483 851.803L164.327 855.665L220.455 741.678L212.611 737.815ZM219.588 736.364L218.425 735.806L214.64 743.688L215.803 744.246L219.588 736.364ZM270.294 620.67L213.755 738.413L221.636 742.197L278.175 624.455L270.294 620.67ZM271.116 619L270.312 620.632L278.157 624.494L278.96 622.863L271.116 619ZM275.507 625.278L275.528 625.276L274.547 616.587L274.526 616.589L275.507 625.278ZM278.748 603.065L271.076 619.041L278.958 622.826L286.63 606.849L278.748 603.065ZM286.397 602.642L286.385 602.622L278.993 607.292L279.006 607.312L286.397 602.642ZM380.113 392.318L278.762 603.082L286.641 606.872L387.993 396.107L380.113 392.318ZM149.723 398.591L384.053 398.584L384.052 389.841L149.722 389.847L149.723 398.591ZM153.434 391.909L153.432 391.905L146.013 396.533L146.015 396.537L153.434 391.909ZM147.797 398.146L147.799 398.147L151.65 390.298L151.647 390.296L147.797 398.146ZM31.3561 650.817L153.663 396.114L145.781 392.329L23.4741 647.033L31.3561 650.817Z" fill="url(#paint1_linear_185_598)" mask="url(#path-1-inside-1_185_598)"/>
</g>
</g>
<defs>
<filter id="filter0_ddddd_185_598" x="-439.466" y="-385.692" width="1459.24" height="1378.81" filterUnits="userSpaceOnUse" color-interpolation-filters="sRGB">
<feFlood flood-opacity="0" result="BackgroundImageFix"/>
<feColorMatrix in="SourceAlpha" type="matrix" values="0 0 0 0 0 0 0 0 0 0 0 0 0 0 0 0 0 0 127 0" result="hardAlpha"/>
<feOffset dx="-13.1154" dy="-11.6581"/>
<feGaussianBlur stdDeviation="18.9444"/>
<feColorMatrix type="matrix" values="0 0 0 0 0.866667 0 0 0 0 0.956863 0 0 0 0 0.945098 0 0 0 0.98 0"/>
<feBlend mode="normal" in2="BackgroundImageFix" result="effect1_dropShadow_185_598"/>
<feColorMatrix in="SourceAlpha" type="matrix" values="0 0 0 0 0 0 0 0 0 0 0 0 0 0 0 0 0 0 127 0" result="hardAlpha"/>
<feOffset dx="-51.0043" dy="-48.0898"/>
<feGaussianBlur stdDeviation="34.9744"/>
<feColorMatrix type="matrix" values="0 0 0 0 0.866667 0 0 0 0 0.956863 0 0 0 0 0.945098 0 0 0 0.85 0"/>
<feBlend mode="normal" in2="effect1_dropShadow_185_598" result="effect2_dropShadow_185_598"/>
<feColorMatrix in="SourceAlpha" type="matrix" values="0 0 0 0 0 0 0 0 0 0 0 0 0 0 0 0 0 0 127 0" result="hardAlpha"/>
<feOffset dx="-115.124" dy="-106.38"/>
<feGaussianBlur stdDeviation="47.3611"/>
<feColorMatrix type="matrix" values="0 0 0 0 0.866667 0 0 0 0 0.956863 0 0 0 0 0.945098 0 0 0 0.5 0"/>
<feBlend mode="normal" in2="effect2_dropShadow_185_598" result="effect3_dropShadow_185_598"/>
<feColorMatrix in="SourceAlpha" type="matrix" values="0 0 0 0 0 0 0 0 0 0 0 0 0 0 0 0 0 0 127 0" result="hardAlpha"/>
<feOffset dx="-205.474" dy="-189.444"/>
<feGaussianBlur stdDeviation="56.1047"/>
<feColorMatrix type="matrix" values="0 0 0 0 0.866667 0 0 0 0 0.956863 0 0 0 0 0.945098 0 0 0 0.15 0"/>
<feBlend mode="normal" in2="effect3_dropShadow_185_598" result="effect4_dropShadow_185_598"/>
<feColorMatrix in="SourceAlpha" type="matrix" values="0 0 0 0 0 0 0 0 0 0 0 0 0 0 0 0 0 0 127 0" result="hardAlpha"/>
<feOffset dx="-322.056" dy="-297.282"/>
<feGaussianBlur stdDeviation="61.2051"/>
<feColorMatrix type="matrix" values="0 0 0 0 0.866667 0 0 0 0 0.956863 0 0 0 0 0.945098 0 0 0 0.02 0"/>
<feBlend mode="normal" in2="effect4_dropShadow_185_598" result="effect5_dropShadow_185_598"/>
<feBlend mode="normal" in="SourceGraphic" in2="effect5_dropShadow_185_598" result="shape"/>
</filter>
<linearGradient id="paint0_linear_185_598" x1="269.272" y1="109.947" x2="915.829" y2="990.024" gradientUnits="userSpaceOnUse">
<stop stop-color="#004F4A"/>
<stop offset="1" stop-color="#09AFA4" stop-opacity="0"/>
</linearGradient>
<linearGradient id="paint1_linear_185_598" x1="238.523" y1="111.609" x2="760.423" y2="862.874" gradientUnits="userSpaceOnUse">
<stop stop-color="#078B83"/>
<stop offset="1" stop-color="#BBDEDC"/>
</linearGradient>
<clipPath id="clip0_185_598">
<rect width="1000" height="1000" fill="white"/>
</clipPath>
</defs>
</svg>
